<svg xmlns="http://www.w3.org/2000/svg" width="30" height="30" viewBox="0 0 30 30"><defs><style>.a{fill:#2f3542;}</style></defs><path class="a" d="M291.231,508.668q-.187.03-.376.056Q291.044,508.7,291.231,508.668Zm0,0" transform="translate(-273.813 -478.863)"/><path class="a" d="M299.519,507.793l-.179.031Zm0,0" transform="translate(-281.8 -478.04)"/><path class="a" d="M278.051,510.34q-.219.025-.441.044Q277.831,510.365,278.051,510.34Zm0,0" transform="translate(-261.343 -480.437)"/><path class="a" d="M286.657,509.738l-.211.026Zm0,0" transform="translate(-269.662 -479.871)"/><path class="a" d="M306.822,506.41l-.158.033Zm0,0" transform="translate(-288.695 -476.738)"/><path class="a" d="M324.612,502.113l-.128.036Zm0,0" transform="translate(-305.472 -472.692)"/><path class="a" d="M319.2,503.543l-.139.036Zm0,0" transform="translate(-300.364 -474.039)"/><path class="a" d="M312.214,505.254l-.148.033Zm0,0" transform="translate(-293.781 -475.649)"/><path class="a" d="M273.717,511.09l-.237.018Zm0,0" transform="translate(-257.456 -481.143)"/><path class="a" d="M30,15A15,15,0,1,0,15,30c.088,0,.176,0,.264,0V18.32H12.041V14.564h3.223V11.8c0-3.205,1.957-4.95,4.816-4.95A26.528,26.528,0,0,1,22.969,7v3.35H21c-1.555,0-1.857.739-1.857,1.824v2.392H22.86l-.485,3.756H19.14v11.1A15.008,15.008,0,0,0,30,15Zm0,0"/><path class="a" d="M265.361,511.43q-.234.015-.47.023Q265.126,511.445,265.361,511.43Zm0,0" transform="translate(-249.37 -481.463)"/><path class="a" d="M260.753,511.836l-.249.006Zm0,0" transform="translate(-245.24 -481.846)"/></svg>